<svg width="145" height="19" fill="none" xmlns="http://www.w3.org/2000/svg"><path d="M8.748 18.36c1.68 0 3.104-.356 4.272-1.068a7.032 7.032 0 0 0 2.688-2.964c.616-1.256.924-2.684.924-4.284 0-.064-.004-.212-.012-.444a8.468 8.468 0 0 0-.036-.576H10.56v2.016h3.36c-.176 1.6-.688 2.828-1.536 3.684-.848.848-2.012 1.264-3.492 1.248-1.832-.016-3.212-.628-4.14-1.836-.92-1.208-1.376-2.8-1.368-4.776.008-1.32.212-2.476.612-3.468.408-1 1.02-1.776 1.836-2.328.816-.552 1.836-.824 3.06-.816 1.192.008 2.18.32 2.964.936.784.616 1.348 1.44 1.692 2.472l2.544-.456c-.44-1.664-1.268-2.968-2.484-3.912C12.4.844 10.78.372 8.748.372c-1.576 0-2.968.364-4.176 1.092-1.208.72-2.152 1.752-2.832 3.096C1.06 5.896.72 7.496.72 9.36c0 1.888.348 3.504 1.044 4.848.696 1.344 1.648 2.372 2.856 3.084 1.208.712 2.584 1.068 4.128 1.068ZM19.024 18h2.532v-6.54c0-.76.12-1.464.36-2.112a3.105 3.105 0 0 1 1.272-1.56c.432-.28.908-.444 1.428-.492.52-.048.988-.016 1.404.096V5.04a5.02 5.02 0 0 0-1.86.012c-.648.12-1.216.36-1.704.72-.48.32-.88.764-1.2 1.332V5.04h-2.232V18Zm14.795.36c1.256 0 2.396-.316 3.42-.948 1.024-.64 1.788-1.54 2.292-2.7l-2.46-.78c-.656 1.376-1.78 2.064-3.372 2.064-1.088 0-1.944-.328-2.568-.984-.624-.656-.988-1.584-1.092-2.784h9.66c.088-1.552-.096-2.892-.552-4.02-.456-1.128-1.148-1.996-2.076-2.604-.928-.616-2.052-.924-3.372-.924-1.264 0-2.372.284-3.324.852-.952.568-1.696 1.372-2.232 2.412-.528 1.04-.792 2.268-.792 3.684 0 1.336.268 2.512.804 3.528a5.973 5.973 0 0 0 2.268 2.364c.976.56 2.108.84 3.396.84ZM33.795 6.9c1.96 0 3.072 1.124 3.336 3.372h-7.032c.16-1.096.548-1.932 1.164-2.508.616-.576 1.46-.864 2.532-.864Zm14.344 11.46c1.256 0 2.396-.316 3.42-.948 1.024-.64 1.788-1.54 2.292-2.7l-2.46-.78c-.656 1.376-1.78 2.064-3.372 2.064-1.088 0-1.944-.328-2.568-.984-.624-.656-.988-1.584-1.092-2.784h9.66c.088-1.552-.096-2.892-.552-4.02-.456-1.128-1.148-1.996-2.076-2.604-.928-.616-2.052-.924-3.372-.924-1.264 0-2.372.284-3.324.852-.952.568-1.696 1.372-2.232 2.412-.528 1.04-.792 2.268-.792 3.684 0 1.336.268 2.512.804 3.528a5.973 5.973 0 0 0 2.268 2.364c.976.56 2.108.84 3.396.84ZM48.115 6.9c1.96 0 3.072 1.124 3.336 3.372h-7.032c.16-1.096.548-1.932 1.164-2.508.616-.576 1.46-.864 2.532-.864ZM56.348 18h2.544v-6.744c0-1.024.148-1.84.444-2.448.304-.616.704-1.06 1.2-1.332a3.362 3.362 0 0 1 1.644-.408c.688 0 1.248.14 1.68.42.432.28.764.648.996 1.104.232.456.388.952.468 1.488.088.528.132 1.044.132 1.548V18H68v-7.2c0-.4-.036-.864-.108-1.392a7.884 7.884 0 0 0-.408-1.62 5.102 5.102 0 0 0-.876-1.524c-.376-.472-.868-.852-1.476-1.14-.608-.288-1.36-.432-2.256-.432-.936 0-1.768.168-2.496.504-.72.336-1.316.8-1.788 1.392V5.04h-2.244V18Zm19.57 0h2.544v-6.744c0-1.024.148-1.84.444-2.448.304-.616.704-1.06 1.2-1.332a3.362 3.362 0 0 1 1.644-.408c.688 0 1.248.14 1.68.42.432.28.764.648.996 1.104.232.456.388.952.468 1.488.088.528.132 1.044.132 1.548V18h2.544v-7.2c0-.4-.036-.864-.108-1.392a7.884 7.884 0 0 0-.408-1.62 5.102 5.102 0 0 0-.876-1.524c-.376-.472-.868-.852-1.476-1.14-.608-.288-1.36-.432-2.256-.432-.936 0-1.768.168-2.496.504-.72.336-1.316.8-1.788 1.392V.72h-2.244V18Zm20.406.36c1.288 0 2.408-.288 3.36-.864a5.902 5.902 0 0 0 2.208-2.412c.528-1.032.792-2.224.792-3.576 0-1.336-.26-2.516-.78-3.54-.52-1.032-1.256-1.836-2.208-2.412-.952-.584-2.076-.876-3.372-.876-1.272 0-2.384.288-3.336.864a5.904 5.904 0 0 0-2.22 2.4c-.528 1.024-.792 2.212-.792 3.564 0 1.336.26 2.52.78 3.552s1.252 1.84 2.196 2.424c.952.584 2.076.876 3.372.876Zm0-2.364c-1.208 0-2.124-.404-2.748-1.212-.624-.816-.936-1.908-.936-3.276 0-1.32.3-2.392.9-3.216.6-.832 1.528-1.248 2.784-1.248 1.224 0 2.144.404 2.76 1.212.624.808.936 1.892.936 3.252 0 1.328-.308 2.408-.924 3.24-.608.832-1.532 1.248-2.772 1.248Zm13.881 2.352c.936 0 1.764-.168 2.484-.504a4.872 4.872 0 0 0 1.8-1.392V18h2.232V5.04h-2.532v6.744c0 1.024-.148 1.844-.444 2.46-.296.608-.696 1.048-1.2 1.32a3.362 3.362 0 0 1-1.644.408c-.688 0-1.248-.14-1.68-.42a2.816 2.816 0 0 1-.996-1.104 5.073 5.073 0 0 1-.48-1.476c-.08-.536-.12-1.056-.12-1.56V5.04h-2.544v7.2c0 .4.036.864.108 1.392.072.528.208 1.068.408 1.62.2.552.488 1.064.864 1.536.384.464.88.84 1.488 1.128.608.288 1.36.432 2.256.432Zm14.837 0c1.64 0 2.924-.364 3.852-1.092.936-.728 1.404-1.732 1.404-3.012 0-.672-.14-1.24-.42-1.704-.272-.464-.728-.864-1.368-1.2-.64-.344-1.504-.656-2.592-.936-1.016-.256-1.784-.476-2.304-.66-.512-.192-.86-.384-1.044-.576a1.042 1.042 0 0 1-.276-.732c0-.496.236-.884.708-1.164.472-.288 1.088-.416 1.848-.384.792.032 1.436.232 1.932.6.496.36.788.848.876 1.464l2.568-.468c-.144-1.152-.708-2.072-1.692-2.76-.984-.696-2.22-1.044-3.708-1.044-1.52 0-2.74.356-3.66 1.068-.92.704-1.38 1.644-1.38 2.82 0 .632.136 1.172.408 1.62.28.44.744.824 1.392 1.152.656.328 1.54.64 2.652.936 1.016.272 1.772.5 2.268.684.496.184.82.38.972.588.16.2.24.464.24.792 0 .56-.224 1-.672 1.32-.44.32-1.052.48-1.836.48-.864 0-1.588-.192-2.172-.576a2.555 2.555 0 0 1-1.104-1.596l-2.568.396c.224 1.264.832 2.244 1.824 2.94.992.696 2.276 1.044 3.852 1.044Zm13.659.012c1.256 0 2.396-.316 3.42-.948 1.024-.64 1.788-1.54 2.292-2.7l-2.46-.78c-.656 1.376-1.78 2.064-3.372 2.064-1.088 0-1.944-.328-2.568-.984-.624-.656-.988-1.584-1.092-2.784h9.66c.088-1.552-.096-2.892-.552-4.02-.456-1.128-1.148-1.996-2.076-2.604-.928-.616-2.052-.924-3.372-.924-1.264 0-2.372.284-3.324.852-.952.568-1.696 1.372-2.232 2.412-.528 1.04-.792 2.268-.792 3.684 0 1.336.268 2.512.804 3.528a5.973 5.973 0 0 0 2.268 2.364c.976.56 2.108.84 3.396.84Zm-.024-11.46c1.96 0 3.072 1.124 3.336 3.372h-7.032c.16-1.096.548-1.932 1.164-2.508.616-.576 1.46-.864 2.532-.864Z" fill="#fff"/></svg>